<svg xmlns="http://www.w3.org/2000/svg" viewBox="0 0 120 120" width="120" height="120" role="img" aria-label="learning">
  <defs>
    <radialGradient id="i-g" cx=".35" cy=".3" r=".8">
      <stop offset="0" stop-color="#fff38a"/>
      <stop offset=".55" stop-color="#ffc400"/>
      <stop offset="1" stop-color="#a86b00"/>
    </radialGradient>
    <filter id="i-rough" x="-10%" y="-10%" width="120%" height="120%">
    <feTurbulence type="fractalNoise" baseFrequency="0.9" numOctaves="2" seed="7"/>
    <feDisplacementMap in="SourceGraphic" scale="3.5"/>
  </filter>
  </defs>
  <circle cx="99.4" cy="72.4" r="0.9" fill="#ffc400" opacity="0.72"/><circle cx="18.9" cy="76.1" r="1.5" fill="#ffc400" opacity="0.60"/><circle cx="44.1" cy="105.0" r="1.7" fill="#ffc400" opacity="0.48"/><circle cx="16.9" cy="34.2" r="2.0" fill="#ffc400" opacity="0.75"/><circle cx="47.3" cy="108.2" r="0.8" fill="#ffc400" opacity="0.58"/><circle cx="62.0" cy="12.2" r="1.4" fill="#ffc400" opacity="0.37"/><circle cx="34.8" cy="11.4" r="1.5" fill="#ffc400" opacity="0.83"/><circle cx="40.4" cy="102.4" r="1.6" fill="#ffc400" opacity="0.67"/><circle cx="9.9" cy="70.2" r="2.1" fill="#ffc400" opacity="0.61"/><circle cx="38.1" cy="19.3" r="1.7" fill="#ffc400" opacity="0.71"/><circle cx="111.8" cy="53.8" r="1.1" fill="#ffc400" opacity="0.56"/><circle cx="39.3" cy="19.1" r="1.3" fill="#ffc400" opacity="0.44"/><circle cx="91.7" cy="84.7" r="1.8" fill="#ffc400" opacity="0.42"/><circle cx="60.7" cy="102.7" r="2.0" fill="#ffc400" opacity="0.39"/><circle cx="13.9" cy="71.3" r="2.0" fill="#ffc400" opacity="0.80"/><circle cx="89.8" cy="21.8" r="1.3" fill="#ffc400" opacity="0.55"/><circle cx="99.9" cy="20.4" r="0.8" fill="#ffc400" opacity="0.45"/><circle cx="65.1" cy="100.5" r="1.4" fill="#ffc400" opacity="0.67"/><circle cx="56.6" cy="97.9" r="1.3" fill="#ffc400" opacity="0.55"/><circle cx="11.1" cy="34.4" r="1.7" fill="#ffc400" opacity="0.63"/><circle cx="23.0" cy="22.3" r="0.7" fill="#ffc400" opacity="0.84"/><circle cx="69.8" cy="4.4" r="1.9" fill="#ffc400" opacity="0.57"/><circle cx="25.2" cy="81.6" r="1.6" fill="#ffc400" opacity="0.38"/><circle cx="100.6" cy="74.3" r="0.9" fill="#ffc400" opacity="0.54"/><circle cx="99.7" cy="69.6" r="0.8" fill="#ffc400" opacity="0.41"/><circle cx="32.3" cy="88.0" r="2.0" fill="#ffc400" opacity="0.69"/><circle cx="86.8" cy="92.2" r="1.2" fill="#ffc400" opacity="0.55"/><circle cx="97.4" cy="92.4" r="2.2" fill="#ffc400" opacity="0.61"/><circle cx="17.2" cy="60.4" r="0.8" fill="#ffc400" opacity="0.54"/><circle cx="55.2" cy="107.7" r="0.9" fill="#ffc400" opacity="0.36"/><circle cx="106.1" cy="41.3" r="0.8" fill="#ffc400" opacity="0.65"/><circle cx="107.6" cy="64.2" r="2.2" fill="#ffc400" opacity="0.82"/><circle cx="45.0" cy="13.4" r="1.2" fill="#ffc400" opacity="0.44"/><circle cx="66.6" cy="8.1" r="1.8" fill="#ffc400" opacity="0.53"/><circle cx="68.7" cy="107.0" r="2.2" fill="#ffc400" opacity="0.82"/><circle cx="77.9" cy="7.4" r="1.8" fill="#ffc400" opacity="0.47"/><circle cx="14.0" cy="50.9" r="0.6" fill="#ffc400" opacity="0.37"/><circle cx="51.7" cy="100.3" r="1.7" fill="#ffc400" opacity="0.88"/>
  <g filter="url(#i-rough)" fill="url(#i-g)" stroke="#111" stroke-width="3.5" stroke-linejoin="round">
    <path d="M96.1,54.5 C94.9,60.7 93.2,67.1 91.2,72.4 C89.1,77.7 86.8,82.7 83.7,86.3 C80.7,89.9 77.7,92.5 73.0,93.9 C68.3,95.4 60.9,96.4 55.6,95.0 C50.2,93.7 46.6,89.0 40.9,85.8 C35.1,82.6 24.0,80.1 21.0,75.7 C18.1,71.2 23.4,66.1 23.3,59.3 C23.1,52.6 17.9,40.9 20.1,35.2 C22.2,29.5 30.3,27.5 36.3,25.2 C42.4,22.9 50.3,22.1 56.2,21.3 C62.0,20.5 67.6,19.3 71.5,20.2 C75.4,21.0 75.3,23.7 79.8,26.3 C84.3,28.8 95.6,30.6 98.3,35.3 C101.0,40.0 97.3,48.3 96.1,54.5Z"/>
    <path d="M48.4,84.0 L49.5,106.7 A4.0,4.0 0 1 0 54.5,106.7 L55.6,84.0 Z"/><path d="M38.5,84.0 L39.5,105.0 A3.9,3.9 0 1 0 44.5,105.0 L45.5,84.0 Z"/>
  </g>
  <g fill="none" stroke-linecap="round" stroke-linejoin="round">
    <g stroke="#111" stroke-width="15"><path d="M50,70 V64 A17,17 0 1 1 70,64 V70 Z"/><path d="M52,80 H68"/></g>
    <g stroke="#fff" stroke-width="8"><path d="M50,70 V64 A17,17 0 1 1 70,64 V70 Z"/><path d="M52,80 H68"/></g>
  </g>
</svg>
